# xmcd
#
# Track frame offsets: 
#        150
#        43230
#        61797
#        72121
#        117379
#        130649
#
# Disc length: 1891 seconds
#
# Revision: 0
# Processed by: cddbd v1.5.2PL0 Copyright (c) Steve Scherf et al.
# Submitted via: ExactAudioCopy v0.99pb5
#
DISCID=4f076106
DTITLE=The Allman Brothers Band - 03-14-09 Beacon Theatre (Disc3)
DYEAR=2009
DGENRE=Blues
TTITLE0=JaMaBuBu
TTITLE1=In Memory Of Elizabeth Reed - reprise
TTITLE2=Crowd Noise
TTITLE3=Mountain Jam
TTITLE4=Dazed And Confused
TTITLE5=Mountain Jam - reprise
EXTD=
EXTT0=
EXTT1=
EXTT2=
EXTT3=
EXTT4=
EXTT5=
PLAYORDER=
